Jump_normalized_Motion_pl04
version=1
nRows=18
nColumns=43
inDegrees=yes
endheader
time		pelvis_tilt		pelvis_list		pelvis_rotation		pelvis_tx		pelvis_ty		pelvis_tz		hip_flexion_r		hip_adduction_r		hip_rotation_r		knee_angle_r		ankle_angle_r		subtalar_angle_r		mtp_angle_r		hip_flexion_l		hip_adduction_l		hip_rotation_l		knee_angle_l		ankle_angle_l		subtalar_angle_l		mtp_angle_l		lumbar_extension		lumbar_bending		lumbar_rotation		neck_flexion		neck_lateral_bending		neck_rotation		arm_flex_r		arm_add_r		arm_rot_r		elbow_flex_r		pro_sup_r		wrist_flex_r		wrist_dev_r		hand_finger_flex_r		arm_flex_l		arm_add_l		arm_rot_l		elbow_flex_l		pro_sup_l		wrist_flex_l		wrist_dev_l		hand_finger_flex_l		
0.195000		4.289745		-14.245868		88.171458		0.047800		1.734081		1.905414		89.265786		5.154976		-4.792579		-137.333121		28.456959		-4.754296		-7.450763		91.622571		-8.052128		3.724807		-141.846749		20.965023		-9.601221		21.246766		-60.545273		-0.503557		3.709471		43.914522		-0.832010		2.507033		42.226760		-17.204675		-2.206004		75.010946		128.887557		-9.512977		-7.001699		-16.736421		29.720971		-23.287468		-7.390294		75.545601		117.900938		-16.335923		0.537464		22.165643		
0.198308		4.320271		-14.410231		88.226292		0.047901		1.733888		1.903886		89.247797		5.208126		-4.784858		-137.376962		28.521034		-4.749743		-7.460856		91.599678		-8.044110		3.748011		-141.880512		21.136865		-9.592773		21.254094		-60.299964		-0.454242		3.745385		43.984575		-0.841186		2.467609		43.014901		-17.220319		-2.090655		75.277822		129.000187		-9.477912		-6.856451		-16.825576		30.657423		-23.544066		-6.982786		75.860439		117.909120		-16.183505		0.576420		22.249535		
0.201616		4.345514		-14.571186		88.283590		0.047967		1.733782		1.902320		89.209372		5.263259		-4.753124		-137.403508		28.590119		-4.717847		-7.462035		91.554198		-8.024177		3.769171		-141.890214		21.275221		-9.568256		21.256521		-60.054003		-0.403597		3.785513		43.974183		-0.860751		2.414855		43.769641		-17.215766		-2.030520		75.588967		129.035574		-9.477771		-6.743805		-16.912000		31.586577		-23.696186		-6.680835		76.207659		117.927423		-16.087997		0.593780		22.319487		
0.204924		4.366993		-14.734840		88.337323		0.048039		1.733738		1.900695		89.157738		5.324165		-4.707588		-137.418675		28.637020		-4.684413		-7.462362		91.510654		-8.012107		3.793645		-141.881490		21.364326		-9.544890		21.253995		-59.797584		-0.354626		3.819496		43.903455		-0.880790		2.371918		44.504211		-17.189372		-1.991381		75.924620		129.043884		-9.489558		-6.676118		-16.985922		32.480756		-23.778361		-6.471011		76.604107		117.942088		-16.036183		0.585436		22.370787		
0.208232		4.391414		-14.886324		88.394541		0.048077		1.733825		1.899028		89.087810		5.370413		-4.661726		-137.438616		28.689387		-4.582788		-7.460611		91.442538		-8.000935		3.796420		-141.875057		21.462915		-9.516619		21.234622		-59.548125		-0.310131		3.888955		43.919389		-0.906862		2.281623		45.290958		-17.289894		-1.852591		76.236824		129.017073		-9.462236		-6.512415		-17.105255		33.509885		-23.938233		-6.055563		76.897873		118.020765		-15.929727		0.652064		22.478273		
0.211540		4.404278		-15.042568		88.420404		0.048106		1.733965		1.897310		89.024551		5.431173		-4.604559		-137.448002		28.676758		-4.476033		-7.462275		91.391883		-8.014713		3.791384		-141.863803		21.453597		-9.521296		21.206996		-59.290192		-0.284208		3.945691		43.868103		-0.932656		2.225285		46.065804		-17.418586		-1.672005		76.584792		128.982093		-9.450057		-6.415829		-17.201414		34.476450		-24.027622		-5.756996		77.270665		118.087081		-15.884349		0.670358		22.554328		
0.214848		4.394797		-15.175849		88.416492		0.048109		1.734245		1.895560		88.930551		5.499149		-4.512604		-137.455892		28.637798		-4.273222		-7.466221		91.317372		-8.049960		3.745514		-141.848593		21.383453		-9.580282		21.147356		-59.060526		-0.296409		4.050975		43.851310		-0.977376		2.125413		46.853414		-17.759352		-1.333280		77.007767		128.892929		-9.465473		-6.156938		-17.404737		35.552629		-24.156952		-5.253583		77.602787		118.192406		-15.843552		0.763549		22.693275		
0.218157		4.375978		-15.337202		88.393922		0.048136		1.734585		1.893775		88.855325		5.574339		-4.422174		-137.440461		28.586530		-4.095729		-7.472194		91.269327		-8.103257		3.685466		-141.823265		21.278019		-9.683593		21.093922		-58.803583		-0.319219		4.122152		43.825627		-1.022804		2.060795		47.652090		-18.073296		-0.966814		77.432868		128.815124		-9.533194		-5.922516		-17.613056		36.576167		-24.235471		-4.877387		77.980424		118.238765		-15.872472		0.786375		22.804514		
0.221465		4.369474		-15.522366		88.387742		0.048203		1.734986		1.891951		88.781986		5.642375		-4.361245		-137.392947		28.540757		-3.974592		-7.478412		91.236145		-8.150920		3.651663		-141.781451		21.192773		-9.754835		21.064140		-58.522924		-0.318785		4.155191		43.748503		-1.066139		2.041015		48.445925		-18.275528		-0.677265		77.844483		128.790914		-9.599190		-5.810846		-17.743090		37.532145		-24.285205		-4.636895		78.424022		118.249474		-15.895389		0.738837		22.867898		
0.224773		4.380011		-15.708455		88.382761		0.048217		1.735479		1.890103		88.696341		5.721958		-4.289374		-137.332223		28.493817		-3.826517		-7.488307		91.198998		-8.210755		3.620108		-141.745956		21.079631		-9.834564		21.036511		-58.243517		-0.305376		4.217171		43.808223		-1.123006		2.030931		49.330571		-18.656338		-0.175784		78.208232		128.842261		-9.646407		-5.668848		-17.852597		38.580202		-24.418361		-4.237850		78.781999		118.270774		-15.842329		0.691417		22.942046		
0.228081		4.400908		-15.861835		88.399421		0.048258		1.736205		1.888187		88.527111		5.790391		-4.223043		-137.230618		28.547663		-3.669339		-7.498296		91.080773		-8.261055		3.584813		-141.669808		20.974528		-9.956208		20.998424		-58.007538		-0.276237		4.312590		43.813368		-1.207393		1.981199		50.193667		-19.017584		0.302003		78.641835		128.868117		-9.873433		-5.327746		-18.068440		39.690071		-24.522066		-3.772754		79.127966		118.238805		-15.827868		0.677759		23.039747		
0.231389		4.436089		-16.051358		88.449310		0.048316		1.736910		1.886177		88.373321		5.832375		-4.190205		-137.115944		28.614061		-3.617767		-7.507873		90.973129		-8.303128		3.575182		-141.572683		20.920618		-9.991110		20.971794		-57.715248		-0.217821		4.347986		43.734724		-1.245769		1.941917		51.011839		-19.126516		0.552836		79.025214		128.889077		-10.027653		-5.156253		-18.196083		40.687334		-24.543829		-3.536157		79.540038		118.193417		-15.850716		0.636927		23.094469		
0.234697		4.491431		-16.239703		88.531656		0.048327		1.737663		1.884113		88.203131		5.850945		-4.182937		-137.009851		28.726117		-3.638639		-7.513342		90.853880		-8.343888		3.581484		-141.480263		20.857646		-9.962774		20.937464		-57.414133		-0.122161		4.367435		43.735490		-1.272724		1.918330		51.911457		-19.238471		0.862731		79.297292		128.966932		-10.096271		-5.044570		-18.262754		41.736030		-24.663624		-3.195291		79.895894		118.177411		-15.803965		0.612474		23.158266		
0.238005		4.559451		-16.371407		88.645834		0.048321		1.738615		1.881925		87.943440		5.827447		-4.215146		-136.895069		28.844683		-3.719319		-7.530745		90.650192		-8.369156		3.606332		-141.364902		20.776914		-9.872922		20.872753		-57.168461		-0.003576		4.386181		43.671633		-1.286530		1.880248		52.805217		-19.302071		1.145014		79.588091		129.061077		-10.240298		-4.851037		-18.358022		42.801309		-24.831831		-2.763181		80.274321		118.109579		-15.789563		0.648982		23.242798		
0.241313		4.610784		-16.550013		88.753946		0.048302		1.739542		1.879692		87.750980		5.805115		-4.222923		-136.790414		28.902054		-3.837338		-7.543672		90.485747		-8.429699		3.616010		-141.239691		20.686780		-9.737136		20.816748		-56.859176		0.104231		4.359574		43.596348		-1.271775		1.866002		53.688823		-19.253813		1.327861		79.810195		129.134531		-10.296250		-4.768227		-18.386721		43.814238		-24.966945		-2.429683		80.683509		118.044441		-15.795219		0.668945		23.291180		
0.244621		4.639725		-16.703884		88.851279		0.048268		1.740550		1.877373		87.526157		5.771597		-4.240774		-136.706389		28.919040		-4.022698		-7.558120		90.280876		-8.467257		3.617583		-141.127285		20.575465		-9.526379		20.748243		-56.574431		0.189052		4.293097		43.515661		-1.235573		1.866685		54.598170		-19.192493		1.527740		80.025416		129.229715		-10.332713		-4.689881		-18.387687		44.859671		-25.215964		-1.975261		81.094093		117.941740		-15.803924		0.735597		23.337701		
0.247929		4.652613		-16.924666		88.910395		0.048242		1.741599		1.875004		87.369693		5.778234		-4.214490		-136.589001		28.897798		-4.139126		-7.564068		90.117055		-8.536027		3.601036		-140.977639		20.488908		-9.378235		20.715194		-56.216443		0.241151		4.232465		43.396417		-1.213769		1.879177		55.431308		-19.075070		1.623769		80.271952		129.283516		-10.339501		-4.690580		-18.373316		45.818683		-25.313663		-1.706256		81.559195		117.866939		-15.817589		0.728117		23.345439		
0.251237		4.567828		-17.072250		88.951270		0.048476		1.742786		1.872633		87.154901		5.827963		-4.132244		-136.523331		28.832542		-4.419054		-7.569204		89.877629		-8.586068		3.551985		-140.849528		20.360830		-9.076383		20.670819		-55.934535		0.206470		4.094160		43.385003		-1.136181		1.900425		56.371046		-19.003312		1.832210		80.441435		129.412113		-10.281664		-4.631626		-18.307104		46.977516		-25.700380		-1.072653		81.925105		117.692544		-15.803210		0.834778		23.348884		
